<svg width="818" height="534" viewBox="0 0 818 534" fill="none" xmlns="http://www.w3.org/2000/svg">
<path d="M817.417 169.073V198.288L412.674 431.393L162.136 397.754L117.938 465.645L0.583984 397.754V367.891L817.417 169.073Z" fill="black"/>
<path d="M200.807 483.763L194.147 487.599L149.648 461.832V454.137L200.807 483.763Z" fill="#F5F5F5" stroke="#17181A" stroke-width="0.5" stroke-miterlimit="10" stroke-linejoin="round"/>
<path d="M149.648 454.137V461.832L130.822 472.68L130.799 464.985L149.648 454.137Z" fill="#F5F5F5" stroke="#17181A" stroke-width="0.5" stroke-miterlimit="10" stroke-linejoin="round"/>
<path d="M283.945 335.937L283.921 343.631L283.898 351.185L283.874 358.88L115.269 455.949L115.198 455.996V433.311L283.945 335.937Z" fill="#CCCCCC" stroke="#17181A" stroke-width="0.5" stroke-miterlimit="10" stroke-linejoin="round"/>
<path d="M328.679 374.293V374.411L328.632 374.387V374.27L328.679 374.293Z" fill="#F5F5F5" stroke="#17181A" stroke-width="0.5" stroke-miterlimit="10" stroke-linejoin="round"/>
<path d="M235.68 525.767V533.462L181.98 502.33V494.635L188.64 498.494L235.68 525.767Z" fill="#17181A" stroke="#17181A" stroke-width="0.5" stroke-miterlimit="10" stroke-linejoin="round"/>
<path d="M328.679 374.293V374.411L328.632 374.387V374.27L328.679 374.293Z" fill="#F5F5F5" stroke="#17181A" stroke-width="0.5" stroke-miterlimit="10" stroke-linejoin="round"/>
<path d="M407.652 426.157L406.593 426.793L235.681 525.767L188.641 498.494L181.982 494.635L194.147 487.599L200.807 483.763L149.649 454.137L130.8 464.985L115.198 455.996L115.269 455.949L283.874 358.88L283.757 400.272L289.404 403.496L327.667 381.423L328.655 380.859L407.652 426.157Z" fill="#F5F5F5" stroke="#17181A" stroke-width="0.5" stroke-miterlimit="10" stroke-linejoin="round"/>
<path d="M200.806 483.763L194.146 487.599L149.648 461.832L130.822 472.68L130.799 464.985L149.648 454.137L200.806 483.763Z" fill="#17181A" stroke="#17181A" stroke-width="0.5" stroke-miterlimit="10" stroke-linejoin="round"/>
<path d="M115.197 433.312V440.983L115.174 441.006L115.197 433.312Z" fill="#F5F5F5" stroke="#17181A" stroke-width="0.5" stroke-miterlimit="10" stroke-linejoin="round"/>
<path d="M130.823 472.68L115.198 463.596L108.609 459.784V437.241L0.833008 375.352L0.85654 367.657L7.51604 371.493L108.609 429.522L115.198 433.311L115.174 441.006L115.198 440.982V455.996L130.799 464.985L130.823 472.68Z" fill="#17181A" stroke="#17181A" stroke-width="0.5" stroke-miterlimit="10" stroke-linejoin="round"/>
<path d="M432.125 118.244L432.101 125.774L406.922 140.387L400.38 136.598L432.125 118.244Z" fill="#F5F5F5" stroke="#17181A" stroke-width="0.5" stroke-miterlimit="10" stroke-linejoin="round"/>
<path d="M669.96 83.2286V90.4999L662.406 86.123L662.383 78.8281L669.96 83.2286Z" fill="#F5F5F5" stroke="#17181A" stroke-width="0.5" stroke-miterlimit="10" stroke-linejoin="round"/>
<path d="M115.197 433.312V440.983L115.174 441.006L115.197 433.312Z" fill="#F5F5F5" stroke="#17181A" stroke-width="0.5" stroke-miterlimit="10" stroke-linejoin="round"/>
<path d="M391.343 264.094V279.743L396.967 282.99V267.318L391.343 264.094ZM703.022 143.753L691.703 137.187L703.022 143.776L710.246 147.988H710.27V147.965L703.022 143.753ZM720.294 224.043V224.325L720.553 224.184L720.294 224.043ZM715.518 144.458L714.882 144.082L702.999 137.187V137.258L714.882 144.176L715.518 144.553L720.294 147.329V147.235L715.518 144.458Z" fill="#F5F5F5"/>
<path d="M377.201 273.225L377.271 228.467H377.248M660.335 91.4648L661.394 92.1002M460.997 373.682L469.728 368.646M391.343 264.094V279.743L396.967 282.99V267.318L391.343 264.094ZM703.022 143.753L691.703 137.187L703.022 143.776L710.246 147.988H710.27V147.965L703.022 143.753ZM720.294 224.043V224.325L720.553 224.184L720.294 224.043ZM715.518 144.458L714.882 144.082L702.999 137.187V137.258L714.882 144.176L715.518 144.553L720.294 147.329V147.235L715.518 144.458Z" stroke="#17181A" stroke-width="0.5" stroke-miterlimit="10" stroke-linejoin="round"/>
<path d="M455.421 323.112V329.277L455.398 343.631V350.126L455.374 376.929L413.37 352.691V346.196L403.322 340.431L397.674 337.184L396.874 336.713L391.226 333.465L378.496 326.147L372.872 322.923L372.919 302.874V296.403L372.966 275.671L377.201 278.095V278.119H377.225L378.566 278.895L391.321 286.237L395.156 288.426L396.968 289.485L400.804 291.697L420.924 303.251V303.274L455.421 323.112Z" fill="#F5F5F5" stroke="#17181A" stroke-width="0.5" stroke-miterlimit="10" stroke-linejoin="round"/>
<path d="M715.518 144.458L714.882 144.082L702.999 137.187V137.258L714.882 144.176L715.518 144.552L720.294 147.329V147.235L715.518 144.458ZM720.294 224.043V224.325L720.553 224.184L720.294 224.043ZM703.022 143.752L691.703 137.187L703.022 143.776L710.246 147.988H710.27V147.965L703.022 143.752ZM662.383 78.8281V86.123L669.96 90.4999V83.2286L662.383 78.8281ZM400.38 136.599L406.921 140.387L432.1 125.774V118.244L400.38 136.599ZM391.343 264.094V279.743L396.967 282.99V267.318L391.343 264.094Z" fill="#F5F5F5"/>
<path d="M660.335 91.4647L661.394 92.1001M377.201 273.224L377.271 228.467H377.248M715.518 144.458L714.882 144.082L702.999 137.187V137.258L714.882 144.176L715.518 144.552L720.294 147.329V147.235L715.518 144.458ZM720.294 224.043V224.325L720.553 224.184L720.294 224.043ZM703.022 143.752L691.703 137.187L703.022 143.776L710.246 147.988H710.27V147.965L703.022 143.752ZM662.383 78.8281V86.123L669.96 90.4999V83.2286L662.383 78.8281ZM400.38 136.599L406.921 140.387L432.1 125.774V118.244L400.38 136.599ZM391.343 264.094V279.743L396.967 282.99V267.318L391.343 264.094Z" stroke="#17181A" stroke-width="0.5" stroke-miterlimit="10" stroke-linejoin="round"/>
<path d="M589.105 123.445L574.115 132.104L574.091 114.667L568.444 111.396L540.911 127.327L485.353 95.1593L478.693 91.3001L548.112 51.1548V80.899L589.081 104.643L589.105 123.445Z" fill="#F5F5F5" stroke="#17181A" stroke-width="0.5" stroke-miterlimit="10" stroke-linejoin="round"/>
<path d="M390.826 142.129L390.802 149.847L390.708 214.207L377.295 221.972L342.279 201.806L336.679 205.053L336.491 281.931L372.918 302.875L372.871 322.924L328.819 297.604L283.968 323.512L283.944 335.937L115.198 433.312L108.609 429.523L7.51595 371.493L0.856445 367.658L268.131 213.077L273.731 216.536L274.578 217.054L306.04 236.468L311.665 233.597L311.759 195.546L311.782 187.851L390.826 142.129Z" fill="#F5F5F5" stroke="#17181A" stroke-width="0.5" stroke-miterlimit="10" stroke-linejoin="round"/>
<path d="M817.128 176.274L730.649 226.067L725.001 229.314L720.295 232.02L717.447 233.668L711.8 236.939L503.12 357.116L497.496 360.339L490.977 364.105L485.353 367.328L460.974 381.377L455.374 384.601L447.726 389.025L442.078 392.249L413.299 408.839L413.275 422.934L413.252 430.629L407.816 433.782L235.681 533.463V525.768L406.592 426.793L407.651 426.158V419.71L407.675 411.921V404.25L407.722 372.529L407.745 366.081L407.769 349.444V349.421L413.369 346.197V352.692L413.346 369.282L413.322 375.753L413.299 401.167L421.041 396.696L435.395 388.413H435.419L441.043 385.189L455.374 376.929L455.397 350.127V343.632L455.421 329.277V323.112L461.021 319.865V332.384L460.998 346.856V373.706L469.728 368.646L478.67 363.493H478.694L484.294 360.269L497.496 352.668L497.519 297.533L503.143 294.309L503.12 349.421L705.117 233.079L711.988 229.126L714.882 227.455V150.695L715.541 150.295L720.295 147.353V224.326L720.554 224.184L721.754 223.502L724.978 221.643L730.625 218.396L810.469 172.414L817.105 168.579L817.128 176.274Z" fill="#17181A" stroke="#17181A" stroke-width="0.5" stroke-miterlimit="10" stroke-linejoin="round"/>
<path d="M817.106 168.578L810.47 172.414L730.626 218.395L724.979 221.642L721.755 223.501L720.555 224.184L720.296 224.043V204.276L721.684 203.476L724.932 201.617L730.579 198.369L755.758 183.874L755.617 140.599L755.594 132.904L817.106 168.578Z" fill="#F5F5F5" stroke="#17181A" stroke-width="0.5" stroke-miterlimit="10" stroke-linejoin="round"/>
<path d="M420.994 253.458L420.97 273.53V280.048L420.947 296.803L420.923 296.78L406.428 288.449L400.78 285.202L396.968 282.99L396.991 267.318L420.97 253.481L420.994 253.458Z" fill="#F5F5F5" stroke="#17181A" stroke-width="0.5" stroke-miterlimit="10" stroke-linejoin="round"/>
<path d="M710.27 147.964V148.012L710.247 147.988L710.27 147.964Z" fill="#F5F5F5" stroke="#17181A" stroke-width="0.5" stroke-miterlimit="10" stroke-linejoin="round"/>
<path d="M710.27 147.964V148.011L710.246 147.988L703.022 143.775L691.703 137.187L703.022 143.752L710.27 147.964Z" fill="#F5F5F5" stroke="#17181A" stroke-width="0.5" stroke-miterlimit="10" stroke-linejoin="round"/>
<path d="M715.517 144.458V144.552L714.882 144.175L702.999 137.257V137.187L714.882 144.081L715.517 144.458Z" fill="#F5F5F5" stroke="#17181A" stroke-width="0.5" stroke-miterlimit="10" stroke-linejoin="round"/>
<path d="M710.27 147.964V148.011L710.246 147.988L703.022 143.775L691.703 137.187L703.022 143.752L710.27 147.964Z" fill="#F5F5F5" stroke="#17181A" stroke-width="0.5" stroke-miterlimit="10" stroke-linejoin="round"/>
<path d="M661.394 92.0997L660.335 91.4879V91.4644L661.394 92.0997Z" fill="#F5F5F5" stroke="#17181A" stroke-width="0.5" stroke-miterlimit="10" stroke-linejoin="round"/>
<path d="M715.517 144.458V144.552L714.882 144.175L702.999 137.257V137.187L714.882 144.081L715.517 144.458Z" fill="#F5F5F5" stroke="#17181A" stroke-width="0.5" stroke-miterlimit="10" stroke-linejoin="round"/>
<path d="M710.27 147.964V148.011L710.246 147.988L703.022 143.775L691.703 137.187L703.022 143.752L710.27 147.964Z" fill="#F5F5F5" stroke="#17181A" stroke-width="0.5" stroke-miterlimit="10" stroke-linejoin="round"/>
<path d="M661.394 92.0997L660.335 91.4879V91.4644L661.394 92.0997Z" fill="#F5F5F5" stroke="#17181A" stroke-width="0.5" stroke-miterlimit="10" stroke-linejoin="round"/>
<path d="M710.27 147.964V148.011L710.246 147.988L703.022 143.775L691.703 137.187L703.022 143.752L710.27 147.964Z" fill="#F5F5F5" stroke="#17181A" stroke-width="0.5" stroke-miterlimit="10" stroke-linejoin="round"/>
<path d="M720.294 147.235V147.329L715.517 144.552L714.882 144.175L702.999 137.257V137.187L714.882 144.081L715.517 144.458L720.294 147.235Z" fill="#F5F5F5" stroke="#17181A" stroke-width="0.5" stroke-miterlimit="10" stroke-linejoin="round"/>
<path d="M710.27 147.964V148.011L710.246 147.988L703.022 143.775L691.703 137.187L703.022 143.752L710.27 147.964Z" fill="#F5F5F5" stroke="#17181A" stroke-width="0.5" stroke-miterlimit="10" stroke-linejoin="round"/>
<path d="M720.294 147.235V147.329L715.517 144.552L714.882 144.175L702.999 137.257V137.187L714.882 144.081L715.517 144.458L720.294 147.235Z" fill="#F5F5F5" stroke="#17181A" stroke-width="0.5" stroke-miterlimit="10" stroke-linejoin="round"/>
<path d="M686.809 92.994V100.289L675.607 93.7706V86.4992L675.584 80.0045L686.762 73.5332L686.809 92.994Z" fill="#F5F5F5" stroke="#17181A" stroke-width="0.5" stroke-miterlimit="10" stroke-linejoin="round"/>
<path d="M675.608 86.4992V93.7705L669.96 90.4996V83.2283L669.937 76.71L675.584 80.0044L675.608 86.4992Z" fill="#17181A" stroke="#17181A" stroke-width="0.5" stroke-miterlimit="10" stroke-linejoin="round"/>
<path d="M744.226 106.901L727.448 116.573L721.142 120.22L686.856 100.312L686.809 100.289V92.994L686.762 73.5332L686.809 73.5567L744.226 106.901Z" fill="#F5F5F5" stroke="#17181A" stroke-width="0.5" stroke-miterlimit="10" stroke-linejoin="round"/>
<path d="M697.327 133.939L691.703 137.187L691.727 146.741V153.329L691.797 180.062V186.603L654.782 165.166L654.735 145.093V136.128L654.641 88.1699L660.335 91.4644V91.4879L661.394 92.0997L661.535 92.1703L662.406 92.688L669.983 97.0885L675.631 100.359L686.832 106.854L686.879 106.901L715.47 123.491L697.327 133.939Z" fill="#F5F5F5" stroke="#17181A" stroke-width="0.5" stroke-miterlimit="10" stroke-linejoin="round"/>
<path d="M710.27 147.964V148.011L710.246 147.988L703.022 143.775L691.703 137.187L703.022 143.752L710.27 147.964Z" fill="#F5F5F5" stroke="#17181A" stroke-width="0.5" stroke-miterlimit="10" stroke-linejoin="round"/>
<path d="M720.294 147.235V147.329L715.517 144.552L714.882 144.175L702.999 137.257V137.187L714.882 144.081L715.517 144.458L720.294 147.235Z" fill="#F5F5F5" stroke="#17181A" stroke-width="0.5" stroke-miterlimit="10" stroke-linejoin="round"/>
<path d="M710.27 147.964V148.011L710.246 147.988L703.022 143.775V143.752L710.27 147.964Z" fill="#F5F5F5" stroke="#17181A" stroke-width="0.5" stroke-miterlimit="10" stroke-linejoin="round"/>
<path d="M720.294 147.235V147.329L715.517 144.552L714.882 144.175L702.999 137.257V137.187L714.882 144.081L715.517 144.458L720.294 147.235Z" fill="#F5F5F5" stroke="#17181A" stroke-width="0.5" stroke-miterlimit="10" stroke-linejoin="round"/>
<path d="M710.27 147.964V148.011L710.246 147.988L703.022 143.775V143.752L710.27 147.964Z" fill="#F5F5F5" stroke="#17181A" stroke-width="0.5" stroke-miterlimit="10" stroke-linejoin="round"/>
<path d="M720.294 147.235V147.329L715.517 144.552L714.882 144.175L702.999 137.257V137.187L714.882 144.081L715.517 144.458L720.294 147.235Z" fill="#F5F5F5" stroke="#17181A" stroke-width="0.5" stroke-miterlimit="10" stroke-linejoin="round"/>
<path d="M720.553 224.183L720.294 224.324V224.042L720.553 224.183Z" fill="#F5F5F5" stroke="#17181A" stroke-width="0.5" stroke-miterlimit="10" stroke-linejoin="round"/>
<path d="M720.553 224.183L720.294 224.324V224.042L720.553 224.183Z" fill="#F5F5F5" stroke="#17181A" stroke-width="0.5" stroke-miterlimit="10" stroke-linejoin="round"/>
<path d="M720.553 224.183L720.294 224.324V224.042L720.553 224.183Z" fill="#F5F5F5" stroke="#17181A" stroke-width="0.5" stroke-miterlimit="10" stroke-linejoin="round"/>
<path d="M714.882 227.455L711.988 229.125L705.116 233.079L503.119 349.42L503.143 294.308L449.655 263.482L468.269 252.751L468.316 175.826L445.09 162.413V155.424L489.447 181.05L474.105 189.921L474.057 266.8L494.789 278.754L500.437 275.507V258.093L625.038 186.227L624.991 162.271L654.735 145.093L654.782 165.166L691.797 186.603L691.868 214.136L700.669 219.218L710.458 224.89L711.988 225.784L714.882 227.455Z" fill="#F5F5F5" stroke="#17181A" stroke-width="0.5" stroke-miterlimit="10" stroke-linejoin="round"/>
<path d="M720.553 224.183L720.294 224.324V224.042L720.553 224.183Z" fill="#F5F5F5" stroke="#17181A" stroke-width="0.5" stroke-miterlimit="10" stroke-linejoin="round"/>
<path d="M755.757 183.874L730.578 198.369L724.93 201.617L721.683 203.476L720.294 204.276V147.235L715.517 144.458L714.882 144.082L702.999 137.187L714.882 130.339L715.494 129.986L720.294 127.209L721.165 126.715L726.436 123.68L733.072 119.844L744.25 113.396L755.498 106.901L755.592 132.904L755.616 140.599L755.757 183.874Z" fill="#F5F5F5" stroke="#17181A" stroke-width="0.5" stroke-miterlimit="10" stroke-linejoin="round"/>
<path d="M661.394 92.0997L660.335 91.4879V91.4644L661.394 92.0997Z" fill="#F5F5F5" stroke="#17181A" stroke-width="0.5" stroke-miterlimit="10" stroke-linejoin="round"/>
<path d="M720.294 147.235V147.329L715.517 144.552L714.882 144.175L702.999 137.257V137.187L714.882 144.081L715.517 144.458L720.294 147.235Z" fill="#F5F5F5" stroke="#17181A" stroke-width="0.5" stroke-miterlimit="10" stroke-linejoin="round"/>
<path d="M710.27 147.964V148.012L710.247 147.988L710.27 147.964Z" fill="#F5F5F5" stroke="#17181A" stroke-width="0.5" stroke-miterlimit="10" stroke-linejoin="round"/>
<path d="M377.293 228.467L377.223 273.201L377.199 273.225L377.27 228.467H377.293Z" fill="#F5F5F5" stroke="#17181A" stroke-width="0.5" stroke-miterlimit="10" stroke-linejoin="round"/>
<path d="M396.99 267.318L396.966 282.99L391.318 279.743L391.342 264.094L396.99 267.318Z" fill="#F5F5F5" stroke="#17181A" stroke-width="0.5" stroke-miterlimit="10" stroke-linejoin="round"/>
<path d="M457.02 175.826L445.066 182.745L439.394 186.016L412.497 201.594L406.826 204.888L396.331 210.959L390.707 214.207L390.801 149.847L390.825 142.129V137.611L394.731 139.87L396.449 140.858L401.39 143.706L406.92 146.906L412.568 150.153L439.418 165.661L445.066 168.932L457.02 175.826Z" fill="#F5F5F5" stroke="#17181A" stroke-width="0.5" stroke-miterlimit="10" stroke-linejoin="round"/>
<path d="M377.293 228.467L377.223 273.201L377.199 273.225L377.27 228.467H377.293Z" fill="#F5F5F5" stroke="#17181A" stroke-width="0.5" stroke-miterlimit="10" stroke-linejoin="round"/>
<path d="M391.343 264.094V279.743L396.967 282.99V267.318L391.343 264.094Z" fill="#F5F5F5" stroke="#17181A" stroke-width="0.5" stroke-miterlimit="10" stroke-linejoin="round"/>
<path d="M468.315 175.827L468.268 252.752L449.655 263.483L444.007 260.235L420.969 246.963L391.343 264.094L391.319 279.743L378.588 272.425L377.224 273.201L377.294 228.467L396.049 217.619L401.673 214.372L406.803 211.407L412.498 208.112L439.395 192.558L445.042 189.287L457.02 182.369L468.315 175.827Z" fill="#F5F5F5" stroke="#17181A" stroke-width="0.5" stroke-miterlimit="10" stroke-linejoin="round"/>
<path d="M377.271 228.467L377.2 273.225L372.965 275.672L372.917 296.404V302.875L336.49 281.932L336.678 205.053L342.256 208.277L377.271 228.467Z" fill="#F5F5F5" stroke="#17181A" stroke-width="0.5" stroke-miterlimit="10" stroke-linejoin="round"/>
<path d="M651.065 70.1445V70.1681L649.253 71.2035L651.065 70.1445Z" fill="#F5F5F5" stroke="#17181A" stroke-width="0.5" stroke-miterlimit="10" stroke-linejoin="round"/>
<path d="M651.065 70.1445V70.1681L649.253 71.2035L651.065 70.1445Z" fill="#F5F5F5" stroke="#17181A" stroke-width="0.5" stroke-miterlimit="10" stroke-linejoin="round"/>
<path d="M651.065 63.6264L643.605 67.9327L636.969 71.7684L590.282 98.7593L589.082 99.4653V104.642L548.113 80.8987V51.1545L548.09 3.83203L553.761 7.12648L651.065 63.6264Z" fill="#F5F5F5" stroke="#17181A" stroke-width="0.5" stroke-miterlimit="10" stroke-linejoin="round"/>
<path d="M651.065 70.1445V70.1681L649.253 71.2035L651.065 70.1445Z" fill="#F5F5F5" stroke="#17181A" stroke-width="0.5" stroke-miterlimit="10" stroke-linejoin="round"/>
<path d="M661.396 92.0997L660.337 91.4879V91.4644L661.396 92.0997Z" fill="#F5F5F5" stroke="#17181A" stroke-width="0.5" stroke-miterlimit="10" stroke-linejoin="round"/>
<path d="M594.754 120.197L589.106 123.444L589.083 104.642V99.4653L594.73 102.736V107.913L594.754 120.197Z" fill="#17181A" stroke="#17181A" stroke-width="0.5" stroke-miterlimit="10" stroke-linejoin="round"/>
<path d="M662.407 86.1229L660.313 84.8992L659.96 85.111L654.642 88.1701L654.736 136.128V145.094L624.992 162.272V155.753L624.945 125.421V118.856L624.921 109.278L619.274 106.007L611.014 110.784L605.343 114.055L594.754 120.197L594.73 107.913V102.736L595.93 102.03L642.617 75.0394L649.253 71.2037L651.065 70.1683V70.1448L662.36 63.6265L662.384 78.828L662.407 86.1229Z" fill="#F5F5F5" stroke="#17181A" stroke-width="0.5" stroke-miterlimit="10" stroke-linejoin="round"/>
<path d="M651.065 70.1445V70.1681L649.253 71.2035L651.065 70.1445Z" fill="#F5F5F5" stroke="#17181A" stroke-width="0.5" stroke-miterlimit="10" stroke-linejoin="round"/>
<path d="M661.396 92.0997L660.337 91.4879V91.4644L661.396 92.0997Z" fill="#F5F5F5" stroke="#17181A" stroke-width="0.5" stroke-miterlimit="10" stroke-linejoin="round"/>
<path d="M662.36 63.6264L651.065 70.1447L649.253 71.2036L642.617 75.0393L595.93 102.03L594.73 102.736L589.082 99.4653L590.282 98.7594L636.969 71.7684L643.605 67.9327L651.065 63.6264L553.761 7.1265L548.09 3.83205L553.761 0.537598L662.36 63.6264Z" fill="#17181A" stroke="#17181A" stroke-width="0.5" stroke-miterlimit="10" stroke-linejoin="round"/>
<path d="M651.065 70.1445V70.1681L649.253 71.2035L651.065 70.1445Z" fill="#F5F5F5" stroke="#17181A" stroke-width="0.5" stroke-miterlimit="10" stroke-linejoin="round"/>
<path d="M500.436 258.093V198.629L485.375 189.922L495.071 184.321H495.094L500.718 181.05L540.911 157.824L568.466 141.893L574.114 138.646L589.104 129.963L594.751 126.715L610.988 117.326L616.659 114.055L619.271 112.526L624.919 109.278L624.943 118.856V125.421L624.99 155.754V162.272L625.037 186.227L500.436 258.093Z" fill="#F5F5F5" stroke="#17181A" stroke-width="0.5" stroke-miterlimit="10" stroke-linejoin="round"/>
<path d="M500.436 198.628V275.507L494.788 278.754V254.846L494.812 201.876L500.436 198.628Z" fill="#17181A" stroke="#17181A" stroke-width="0.5" stroke-miterlimit="10" stroke-linejoin="round"/>
<path d="M494.812 201.876L494.788 254.846V278.754L474.057 266.8L474.104 189.922L485.375 196.417L494.812 201.876Z" fill="#F5F5F5" stroke="#17181A" stroke-width="0.5" stroke-miterlimit="10" stroke-linejoin="round"/>
<path d="M624.919 109.278L619.271 112.526L616.659 114.055L610.988 117.326L594.751 126.715L589.103 129.963L574.114 138.646L568.466 141.893L540.91 157.824L500.718 181.05L495.094 184.321H495.07L485.375 189.922L500.436 198.629L494.812 201.876L485.375 196.417L474.104 189.922L489.446 181.05L495.094 177.779L540.91 151.306L568.466 135.375L574.114 132.104L589.103 123.444L594.751 120.197L605.34 114.055L611.012 110.784L619.271 106.007L624.919 109.278Z" fill="#17181A" stroke="#17181A" stroke-width="0.5" stroke-miterlimit="10" stroke-linejoin="round"/>
<path d="M468.315 175.826L457.02 182.368L445.042 189.286L439.395 192.557L412.498 208.112L406.803 211.406L401.673 214.371L396.049 217.619L377.294 228.467H377.271L342.255 208.276L336.678 205.053L342.279 201.805L377.294 221.972L390.707 214.206L396.331 210.959L406.827 204.888L412.498 201.593L439.395 186.015L445.066 182.744L457.02 175.826L445.066 168.931L439.418 165.66L412.568 150.153L406.921 146.905L401.391 143.705L396.449 140.858L394.731 139.869L390.825 137.61L396.449 134.339L400.379 136.599L406.921 140.387L432.1 125.774L437.747 122.503L439.465 121.515L439.63 121.609L445.113 124.786L439.465 128.056L437.747 129.068L432.1 132.316L412.568 143.635L439.442 159.142L445.089 162.413L468.315 175.826Z" fill="#17181A" stroke="#17181A" stroke-width="0.5" stroke-miterlimit="10" stroke-linejoin="round"/>
<path d="M445.113 124.786L445.089 148.906V162.413L439.442 159.142L412.568 143.635L432.1 132.316L437.747 129.068L439.465 128.057L445.113 124.786Z" fill="#F5F5F5" stroke="#17181A" stroke-width="0.5" stroke-miterlimit="10" stroke-linejoin="round"/>
<path d="M574.115 132.104L568.467 135.375L540.911 151.306V133.845L568.443 117.938L574.091 114.667L574.115 132.104Z" fill="#F5F5F5" stroke="#17181A" stroke-width="0.5" stroke-miterlimit="10" stroke-linejoin="round"/>
<path d="M540.911 133.846V151.306L495.094 177.779L489.447 181.05L445.089 155.424V148.906L445.113 124.786L439.63 121.609L439.465 121.515L437.747 122.503L432.1 125.774L432.123 118.244L432.17 70.8979L437.794 74.1453L473.045 94.5709L479.728 98.4302L540.911 133.846Z" fill="#F5F5F5" stroke="#17181A" stroke-width="0.5" stroke-miterlimit="10" stroke-linejoin="round"/>
<path d="M574.091 114.667L568.443 117.938L540.911 133.845L479.728 98.4301L473.045 94.5709L437.795 74.1453L432.17 70.8979L437.795 67.627L478.693 91.3L485.352 95.1592L540.911 127.327L568.443 111.396L574.091 114.667Z" fill="#17181A" stroke="#17181A" stroke-width="0.5" stroke-miterlimit="10" stroke-linejoin="round"/>
<path d="M328.677 374.294V374.412L328.63 374.388V374.271L328.677 374.294Z" fill="#F5F5F5" stroke="#17181A" stroke-width="0.5" stroke-miterlimit="10" stroke-linejoin="round"/>
<path d="M289.614 326.76L289.591 336.219L289.567 343.914L289.544 351.797L289.52 359.492L289.426 397.002L289.403 403.497L283.755 400.273L283.873 358.881L283.896 351.186L283.92 343.632L283.943 335.937L283.967 323.512L289.614 326.76Z" fill="#17181A" stroke="#17181A" stroke-width="0.5" stroke-miterlimit="10" stroke-linejoin="round"/>
<path d="M328.677 374.294V374.412L328.63 374.388V374.271L328.677 374.294Z" fill="#F5F5F5" stroke="#17181A" stroke-width="0.5" stroke-miterlimit="10" stroke-linejoin="round"/>
<path d="M328.842 304.098L328.7 358.763V366.434L328.677 374.294L328.63 374.27V374.388L328.677 374.411L328.653 380.859L327.665 381.424L289.402 403.497L289.426 397.002L289.52 359.492L289.544 351.797L289.567 343.914L289.591 336.219L289.614 326.759L328.795 304.122L328.842 304.098Z" fill="#F5F5F5" stroke="#17181A" stroke-width="0.5" stroke-miterlimit="10" stroke-linejoin="round"/>
<path d="M413.368 346.197L407.768 349.421L401.085 345.585L400.308 345.138L399.202 344.502L396.872 343.161L392.072 340.408L391.225 339.914L378.471 332.595L372.87 329.371L328.842 304.098L328.795 304.122L289.614 326.759L283.967 323.512L328.818 297.604L372.87 322.924L378.494 326.148L391.225 333.466L396.872 336.713L397.673 337.184L403.32 340.431L413.368 346.197Z" fill="#17181A" stroke="#17181A" stroke-width="0.5" stroke-miterlimit="10" stroke-linejoin="round"/>
<path d="M396.991 267.318L396.967 282.99L391.319 279.743L391.343 264.094L396.991 267.318Z" fill="#F5F5F5" stroke="#17181A" stroke-width="0.5" stroke-miterlimit="10" stroke-linejoin="round"/>
<path d="M396.991 267.318L396.967 282.99L391.319 279.743L391.343 264.094L396.991 267.318Z" fill="#17181A" stroke="#17181A" stroke-width="0.5" stroke-miterlimit="10" stroke-linejoin="round"/>
<path d="M497.494 352.668L484.293 360.269L478.693 363.493H478.669L469.727 368.646L460.997 373.682V346.856L461.02 332.384L497.494 352.668Z" fill="#F5F5F5" stroke="#17181A" stroke-width="0.5" stroke-miterlimit="10" stroke-linejoin="round"/>
<path d="M497.518 297.533L497.495 352.668L461.02 332.384V319.865L420.946 296.804L420.969 280.049V273.531L420.993 253.458L438.383 263.483L444.031 266.73L497.518 297.533Z" fill="#F5F5F5" stroke="#17181A" stroke-width="0.5" stroke-miterlimit="10" stroke-linejoin="round"/>
<path d="M503.143 294.309L497.519 297.533L444.031 266.73L438.384 263.482L420.994 253.458L420.97 253.481L396.991 267.318L391.344 264.094L420.97 246.963L444.008 260.235L449.656 263.482L503.143 294.309Z" fill="#17181A" stroke="#17181A" stroke-width="0.5" stroke-miterlimit="10" stroke-linejoin="round"/>
<path d="M407.768 349.42V349.444L407.745 366.081L407.721 372.529L407.674 404.25V411.921L407.651 419.71V426.158L328.654 380.859L328.678 374.411V374.294L328.701 366.434V358.763L328.843 304.098L372.871 329.371L378.471 332.595L391.225 339.914L392.073 340.408L396.873 343.161L399.203 344.502L400.309 345.138L401.085 345.585L407.768 349.42Z" fill="#F5F5F5" stroke="#17181A" stroke-width="0.5" stroke-miterlimit="10" stroke-linejoin="round"/>
<path d="M455.373 376.929L441.042 385.189L435.418 388.413H435.395L421.04 396.696L413.298 401.167L413.322 375.753L413.345 369.281L413.369 352.691L455.373 376.929Z" fill="#F5F5F5" stroke="#17181A" stroke-width="0.5" stroke-miterlimit="10" stroke-linejoin="round"/>
<path d="M461.021 319.864L455.42 323.112L420.923 303.274V303.251L400.803 291.697L396.967 289.485L395.155 288.426L391.32 286.237L378.565 278.896L377.224 278.119H377.201V278.095L372.965 275.672L377.201 273.224L377.224 273.201L378.589 272.424L391.32 279.743L396.967 282.99L400.779 285.202L406.427 288.449L420.923 296.78L420.946 296.803L461.021 319.864Z" fill="#17181A" stroke="#17181A" stroke-width="0.5" stroke-miterlimit="10" stroke-linejoin="round"/>
<path d="M306.157 187.475V191.099L306.134 198.817L306.04 236.468L274.578 217.054L273.73 216.536L268.13 213.077L268.271 165.661L273.872 168.885L306.157 187.475Z" fill="#F5F5F5" stroke="#17181A" stroke-width="0.5" stroke-miterlimit="10" stroke-linejoin="round"/>
<path d="M311.782 184.227V187.851L311.758 195.546L311.664 233.597L306.04 236.468L306.134 198.817L306.158 191.098V187.474L311.782 184.227Z" fill="#17181A" stroke="#17181A" stroke-width="0.5" stroke-miterlimit="10" stroke-linejoin="round"/>
<path d="M311.781 184.227L306.157 187.475L273.871 168.884L268.271 165.661L273.895 162.39L311.781 184.227Z" fill="#17181A" stroke="#17181A" stroke-width="0.5" stroke-miterlimit="10" stroke-linejoin="round"/>
<path d="M115.198 433.312V440.983L115.175 441.006L115.198 433.312Z" fill="#F5F5F5" stroke="#17181A" stroke-width="0.5" stroke-miterlimit="10" stroke-linejoin="round"/>
<path d="M396.874 343.161L399.203 344.502L400.309 345.138L401.086 345.585L407.769 349.444" fill="#F5F5F5"/>
<path d="M396.874 343.161L399.203 344.502L400.309 345.138L401.086 345.585L407.769 349.444" stroke="#17181A" stroke-width="0.5" stroke-miterlimit="10" stroke-linejoin="round"/>
<path d="M714.883 144.176V144.082" stroke="#17181A" stroke-width="0.5" stroke-miterlimit="10" stroke-linejoin="round"/>
<path d="M714.882 150.694V227.455L711.988 225.784L710.458 224.89L700.669 219.219L691.868 214.136L691.798 186.604V180.062L691.727 153.33V146.741L691.704 137.187L703.022 143.776L710.247 147.988L710.27 148.012L714.882 150.694Z" fill="#F5F5F5" stroke="#17181A" stroke-width="0.5" stroke-miterlimit="10" stroke-linejoin="round"/>
<path d="M755.498 106.902L744.25 113.397L733.073 119.844L726.437 123.68L721.166 126.716L720.295 127.21L715.494 129.986L714.883 130.339L702.999 137.187V137.258L714.883 144.176L715.518 144.553L720.295 147.329V147.353L715.541 150.294L714.883 150.694L710.27 148.012V147.965L703.023 143.753L691.704 137.187L697.328 133.94L715.471 123.492L686.88 106.902L686.833 106.855L675.632 100.36L669.984 97.089L662.407 92.6885L661.536 92.1708L661.395 92.1002L660.336 91.4649L654.641 88.1704L659.959 85.1113L660.312 84.8995L662.407 86.1231L669.96 90.5001L675.608 93.771L686.809 100.289L686.856 100.313L721.142 120.221L727.449 116.573L744.227 106.902L686.809 73.5572L686.762 73.5336L675.584 80.0049L669.937 76.7104L686.786 66.9683L755.498 106.902Z" fill="#17181A" stroke="#17181A" stroke-width="0.5" stroke-miterlimit="10" stroke-linejoin="round"/>
<path d="M247.927 379.53L283.886 400.032V346.426L247.927 379.53Z" fill="#F5F5F5" stroke="black" stroke-width="0.5"/>
<ellipse cx="230.379" cy="453.195" rx="17.5472" ry="10.214" fill="black" fill-opacity="0.05"/>
<ellipse cx="605.225" cy="245.84" rx="17.5472" ry="10.214" fill="black" fill-opacity="0.05"/>
<path d="M596.901 222.244C596.071 221.714 595.861 220.954 596.081 220.094C596.401 218.854 596.791 217.644 597.141 216.414C597.201 216.194 597.251 215.964 597.311 215.734C597.451 215.184 597.521 214.694 597.161 214.144C596.771 213.544 596.751 212.854 597.401 212.304C597.511 212.214 597.511 212.004 597.591 211.864C597.651 211.754 597.741 211.674 597.821 211.574C597.901 211.684 598.021 211.784 598.071 211.904C598.121 212.054 598.111 212.234 598.131 212.394C598.871 212.294 599.021 212.074 598.951 211.384C598.831 210.074 598.671 208.764 598.691 207.454C598.701 206.594 598.991 205.734 599.191 204.874C599.231 204.714 599.411 204.524 599.581 204.454C600.771 203.914 601.951 203.784 603.141 204.464C603.821 204.854 604.121 205.444 604.181 206.214C604.261 207.324 604.371 208.424 604.471 209.534C604.471 209.614 604.521 209.694 604.551 209.794C604.661 209.774 604.751 209.774 604.841 209.744C605.721 209.474 606.131 209.694 606.321 210.584C606.651 212.144 607.031 213.694 607.281 215.264C607.391 215.954 607.301 216.684 607.201 217.384C607.121 217.964 606.881 218.094 606.291 218.034C606.061 218.014 605.841 217.934 605.621 217.864C605.181 217.714 604.751 217.544 604.221 217.344C604.171 217.934 604.011 218.484 604.101 218.994C604.511 221.324 605.001 223.644 605.441 225.984C605.561 226.634 605.491 227.314 605.641 227.954C606.021 229.584 606.431 231.204 606.911 232.804C607.421 234.494 607.731 236.214 607.961 237.964C608.061 238.734 608.321 239.474 608.521 240.224C608.551 240.344 608.641 240.474 608.731 240.544C609.311 240.964 609.511 241.554 609.301 242.314C609.131 242.924 608.621 243.324 607.951 243.354C607.581 243.374 607.321 243.194 607.261 242.854C607.181 242.434 607.081 241.984 607.151 241.574C607.231 241.044 607.111 240.584 606.891 240.144C606.431 239.204 605.891 238.304 605.491 237.344C605.051 236.274 604.641 235.174 604.381 234.054C604.051 232.654 603.281 231.474 602.661 230.094C601.981 230.534 601.341 230.944 600.721 231.364C600.621 231.434 600.581 231.614 600.571 231.754C600.441 233.334 600.431 234.894 600.641 236.474C600.781 237.484 600.661 238.524 600.721 239.554C600.781 240.674 600.891 241.804 601.001 242.924C601.021 243.104 601.131 243.294 601.221 243.454C601.641 244.194 601.251 245.094 600.421 245.284C600.321 245.304 600.231 245.344 600.131 245.364C599.121 245.574 598.481 244.984 598.651 243.944C598.711 243.564 598.871 243.164 599.111 242.864C599.321 242.584 599.371 242.354 599.271 242.054C598.951 241.114 598.521 240.194 598.321 239.234C598.031 237.894 597.891 236.524 597.731 235.154C597.611 234.134 597.711 233.054 597.421 232.094C596.931 230.444 596.951 228.724 596.531 227.064C596.121 225.464 596.311 223.824 596.891 222.214L596.901 222.244Z" fill="black"/>
<path d="M230.694 439.118C229.174 441.768 228.914 444.608 228.604 447.418C229.674 447.948 229.754 448.858 229.044 449.788C228.494 450.508 228.134 451.388 227.734 452.218C227.524 452.648 227.234 452.858 226.774 452.858C226.124 452.858 225.664 452.498 225.674 451.838C225.674 451.268 225.844 450.698 225.914 450.128C225.934 449.978 225.874 449.818 225.824 449.668C225.774 449.498 225.644 449.338 225.624 449.178C225.524 448.138 225.314 447.088 225.384 446.058C225.514 443.988 225.814 441.928 225.984 439.868C226.044 439.168 225.934 438.458 225.924 437.748C225.914 436.998 225.964 436.258 225.924 435.508C225.844 434.098 225.754 432.698 225.614 431.298C225.434 429.518 225.054 427.758 225.004 425.978C224.944 423.948 225.644 422.028 226.454 420.178C226.864 419.248 227.994 418.878 229.154 419.148C229.414 419.208 229.684 419.228 229.944 419.268C229.984 419.228 230.014 419.178 230.054 419.138C229.854 418.878 229.714 418.528 229.454 418.358C228.304 417.598 228.124 415.428 228.844 414.318C229.314 413.598 230.064 413.388 230.834 413.238C231.324 413.148 231.814 413.098 232.304 413.028C232.894 412.938 233.544 413.048 233.744 413.568C233.974 414.188 234.414 414.638 234.674 415.198C234.854 415.568 234.814 416.038 235.344 416.208C235.414 416.228 235.474 416.688 235.374 416.798C235.154 417.048 235.214 417.238 235.324 417.468C235.394 417.618 235.454 417.768 235.504 417.928C235.704 418.608 235.374 419.128 234.674 419.218C234.174 419.278 233.724 419.408 233.464 419.878C233.314 420.138 233.314 420.318 233.564 420.598C234.374 421.498 235.164 422.428 235.864 423.418C236.144 423.818 236.304 424.428 236.264 424.918C236.184 425.968 236.414 426.958 236.594 427.968C236.814 429.218 236.864 430.498 237.054 431.758C237.154 432.438 237.304 433.128 237.554 433.768C237.884 434.618 238.074 435.388 237.504 436.218C237.314 436.488 237.374 436.918 237.304 437.278C237.154 437.978 236.804 438.528 236.144 438.868C235.994 438.948 235.884 439.148 235.824 439.328C234.824 442.048 234.524 444.868 234.614 447.748C234.644 448.578 234.544 449.408 234.514 450.238C234.484 450.978 235.034 451.408 235.774 451.198C236.184 451.088 236.584 450.908 237.004 450.808C237.604 450.668 238.074 451.008 237.984 451.628C237.924 452.058 237.724 452.568 237.414 452.828C236.934 453.228 236.314 453.468 235.744 453.758C235.154 454.048 234.534 454.268 233.964 454.598C233.414 454.918 232.864 455.038 232.254 454.868C231.844 454.758 231.634 454.518 231.694 454.068C231.724 453.838 231.754 453.608 231.774 453.378C231.844 452.718 231.974 452.108 231.544 451.438C231.234 450.958 231.174 450.268 231.154 449.668C231.084 447.328 231.114 444.988 231.034 442.648C230.994 441.498 230.814 440.348 230.684 439.118H230.694Z" fill="black"/>
</svg>
