<svg width="817" height="527" viewBox="0 0 817 527" fill="none" xmlns="http://www.w3.org/2000/svg">
<path d="M236.511 518.89L236.487 526.584L1 391.301L1.02353 383.607L7.68183 387.442L82.5701 430.45V430.662L82.7348 430.568L82.5701 430.45L82.8053 353.868L88.452 357.115L88.2402 427.392L88.2167 433.697V433.909L88.3814 433.815H88.4049L187.621 490.799V490.893L187.691 490.846L187.621 490.799L187.762 420.475L187.785 414.146L193.408 417.393L193.385 423.698V423.721L193.267 487.646L193.244 494.045V494.139L193.338 494.092L236.511 518.89Z" fill="#17181A" stroke="#17181A" stroke-width="0.5" stroke-miterlimit="10" stroke-linejoin="round"/>
<path d="M82.735 430.567L82.5703 430.661V430.449L82.735 430.567Z" fill="#F5F5F5" stroke="#17181A" stroke-width="0.5" stroke-miterlimit="10" stroke-linejoin="round"/>
<path d="M88.3825 433.814L88.2178 433.908V433.696L88.3825 433.814Z" fill="#F5F5F5" stroke="#17181A" stroke-width="0.5" stroke-miterlimit="10" stroke-linejoin="round"/>
<path d="M187.692 490.843L187.621 490.89V490.796L187.692 490.843Z" fill="#F5F5F5" stroke="#17181A" stroke-width="0.5" stroke-miterlimit="10" stroke-linejoin="round"/>
<path d="M193.337 494.09L193.243 494.137V494.043L193.337 494.09Z" fill="#F5F5F5" stroke="#17181A" stroke-width="0.5" stroke-miterlimit="10" stroke-linejoin="round"/>
<path d="M410.708 418.521V418.615L410.614 418.568L410.708 418.521Z" fill="#F5F5F5" stroke="#17181A" stroke-width="0.5" stroke-miterlimit="10" stroke-linejoin="round"/>
<path d="M416.333 415.273V415.368L416.239 415.321L416.333 415.273Z" fill="#F5F5F5" stroke="#17181A" stroke-width="0.5" stroke-miterlimit="10" stroke-linejoin="round"/>
<path d="M454.046 393.533V393.651L453.952 393.604L454.046 393.533Z" fill="#F5F5F5" stroke="#17181A" stroke-width="0.5" stroke-miterlimit="10" stroke-linejoin="round"/>
<path d="M459.693 390.287V390.405L459.599 390.334L459.693 390.287Z" fill="#F5F5F5" stroke="#17181A" stroke-width="0.5" stroke-miterlimit="10" stroke-linejoin="round"/>
<path d="M752.494 221.571V221.877L752.235 221.712L752.494 221.571Z" fill="#F5F5F5" stroke="#17181A" stroke-width="0.5" stroke-miterlimit="10" stroke-linejoin="round"/>
<path d="M758.164 218.302V218.608L757.905 218.466L758.164 218.302Z" fill="#F5F5F5" stroke="#17181A" stroke-width="0.5" stroke-miterlimit="10" stroke-linejoin="round"/>
<path d="M816.701 192.28L236.487 526.583L236.511 518.889L410.615 418.568L410.709 418.615V341.797L416.332 338.574V415.274L416.238 415.321L416.332 415.368V415.274L453.953 393.605L454.047 393.652V387.158L454.023 316.835L459.67 313.588L459.693 390.288L459.599 390.335L459.693 390.405V390.288L752.235 221.713L752.494 221.877V221.571L752.47 215.313L752.282 154.894L752.259 147.201V144.942L757.929 141.672L757.952 150.518L757.976 158.212L758.164 218.301L757.905 218.466L758.164 218.607V218.301L810.042 188.421L816.677 184.586L816.701 192.28Z" fill="#17181A" stroke="#17181A" stroke-width="0.5" stroke-miterlimit="10" stroke-linejoin="round"/>
<path d="M416.333 415.273V415.368L416.239 415.321L416.333 415.273Z" fill="#F5F5F5" stroke="#17181A" stroke-width="0.5" stroke-miterlimit="10" stroke-linejoin="round"/>
<path d="M459.693 390.287V390.405L459.599 390.334L459.693 390.287Z" fill="#F5F5F5" stroke="#17181A" stroke-width="0.5" stroke-miterlimit="10" stroke-linejoin="round"/>
<path d="M187.692 490.843L187.621 490.89V490.796L187.692 490.843Z" fill="#F5F5F5" stroke="#17181A" stroke-width="0.5" stroke-miterlimit="10" stroke-linejoin="round"/>
<path d="M193.337 494.09L193.243 494.137V494.043L193.337 494.09Z" fill="#F5F5F5" stroke="#17181A" stroke-width="0.5" stroke-miterlimit="10" stroke-linejoin="round"/>
<path d="M82.735 430.567L82.5703 430.661V430.449L82.735 430.567Z" fill="#F5F5F5" stroke="#17181A" stroke-width="0.5" stroke-miterlimit="10" stroke-linejoin="round"/>
<path d="M88.3825 433.814L88.2178 433.908V433.696L88.3825 433.814Z" fill="#F5F5F5" stroke="#17181A" stroke-width="0.5" stroke-miterlimit="10" stroke-linejoin="round"/>
<path d="M149.695 321.703V324.338L149.601 363.159L149.578 369.629L149.53 392.051L149.483 392.027L149.53 369.605V369.582L149.554 363.135L149.648 324.315V321.727L149.695 321.703Z" fill="#F5F5F5" stroke="#17181A" stroke-width="0.5" stroke-miterlimit="10" stroke-linejoin="round"/>
<path d="M187.763 420.473L187.622 490.797L88.4062 433.813L149.507 398.521L187.763 420.473Z" fill="#F5F5F5" stroke="#17181A" stroke-width="0.5" stroke-miterlimit="10" stroke-linejoin="round"/>
<path d="M193.525 417.321L193.407 417.392L187.784 414.145L187.878 414.074L193.525 417.321Z" fill="#F5F5F5" stroke="#17181A" stroke-width="0.5" stroke-miterlimit="10" stroke-linejoin="round"/>
<path d="M202.021 322.834L201.974 345.303L201.927 345.279L201.974 322.811L202.021 322.834Z" fill="#F5F5F5" stroke="#17181A" stroke-width="0.5" stroke-miterlimit="10" stroke-linejoin="round"/>
<path d="M224.253 367.231L224.206 393.135L212.16 400.076L212.184 393.7L217.172 390.829L217.219 363.185L224.253 367.231Z" fill="#F5F5F5" stroke="#17181A" stroke-width="0.5" stroke-miterlimit="10" stroke-linejoin="round"/>
<path d="M249.028 378.806L229.806 389.911V389.887L249.028 378.806Z" fill="#F5F5F5" stroke="#17181A" stroke-width="0.5" stroke-miterlimit="10" stroke-linejoin="round"/>
<path d="M410.708 418.521V418.615L410.614 418.568L410.708 418.521Z" fill="#F5F5F5" stroke="#17181A" stroke-width="0.5" stroke-miterlimit="10" stroke-linejoin="round"/>
<path d="M453.954 393.605L416.333 415.274V371.937L453.954 393.605Z" fill="#F5F5F5" stroke="#17181A" stroke-width="0.5" stroke-miterlimit="10" stroke-linejoin="round"/>
<path d="M454.046 393.533V393.651L453.952 393.604L454.046 393.533Z" fill="#F5F5F5" stroke="#17181A" stroke-width="0.5" stroke-miterlimit="10" stroke-linejoin="round"/>
<path d="M752.494 221.571V221.877L752.235 221.712L752.494 221.571Z" fill="#F5F5F5" stroke="#17181A" stroke-width="0.5" stroke-miterlimit="10" stroke-linejoin="round"/>
<path d="M758.164 218.302V218.608L757.905 218.466L758.164 218.302Z" fill="#F5F5F5" stroke="#17181A" stroke-width="0.5" stroke-miterlimit="10" stroke-linejoin="round"/>
<path d="M453.954 393.605L416.333 415.274V371.937L453.954 393.605Z" fill="#F5F5F5" stroke="#17181A" stroke-width="0.5" stroke-miterlimit="10" stroke-linejoin="round"/>
<path d="M752.235 221.712L459.693 390.287L459.67 313.587L338.032 243.428L332.409 246.675L332.339 323.54L338.291 326.975L296.577 351.043L296.506 427.837L302.129 431.084L367.207 393.581L410.615 418.567L236.511 518.889L193.338 494.091L288.507 439.248L288.601 362.454L282.978 359.231L254.627 375.583L247.522 371.489L247.64 297.283L205.478 273.002L198.796 269.167L515.666 85.8171V85.9113L522.253 89.7227L569.661 117.203L575.331 113.933L575.284 78.5236L575.261 70.8301L587.166 63.9365L587.189 71.63L587.236 104.592L592.883 107.862L632.151 85.1819L638.785 81.3469L683.464 107.274L683.488 114.968L683.652 181.974L752.235 221.712Z" fill="#F5F5F5" stroke="#17181A" stroke-width="0.5" stroke-miterlimit="10" stroke-linejoin="round"/>
<path d="M102.427 342.526L82.8053 353.866L82.57 430.448L7.68174 387.44L1.02344 383.605L87.1814 333.75V333.774L93.8161 337.585H93.8397L102.427 342.526Z" fill="#F5F5F5" stroke="#17181A" stroke-width="0.5" stroke-miterlimit="10" stroke-linejoin="round"/>
<path d="M149.695 321.703V324.338L149.601 363.159L149.578 369.629L149.53 392.051L149.483 392.027L149.53 369.605V369.582L149.554 363.135L149.648 324.315V321.727L149.695 321.703Z" fill="#F5F5F5" stroke="#17181A" stroke-width="0.5" stroke-miterlimit="10" stroke-linejoin="round"/>
<path d="M187.763 420.473L187.622 490.797L88.4062 433.813L149.507 398.521L187.763 420.473Z" fill="#F5F5F5" stroke="#17181A" stroke-width="0.5" stroke-miterlimit="10" stroke-linejoin="round"/>
<path d="M193.525 417.321L193.407 417.392L187.784 414.145L187.878 414.074L193.525 417.321Z" fill="#F5F5F5" stroke="#17181A" stroke-width="0.5" stroke-miterlimit="10" stroke-linejoin="round"/>
<path d="M202.021 322.834L201.974 345.303L201.927 345.279L201.974 322.811L202.021 322.834Z" fill="#F5F5F5" stroke="#17181A" stroke-width="0.5" stroke-miterlimit="10" stroke-linejoin="round"/>
<path d="M224.253 367.231L224.206 393.135L212.16 400.076L212.184 393.7L217.172 390.829L217.219 363.185L224.253 367.231Z" fill="#F5F5F5" stroke="#17181A" stroke-width="0.5" stroke-miterlimit="10" stroke-linejoin="round"/>
<path d="M249.028 378.806L229.806 389.911V389.887L249.028 378.806Z" fill="#F5F5F5" stroke="#17181A" stroke-width="0.5" stroke-miterlimit="10" stroke-linejoin="round"/>
<path d="M816.677 184.585L810.042 188.42L758.164 218.3L757.976 158.211L757.952 150.518L816.677 184.585Z" fill="#F5F5F5" stroke="#17181A" stroke-width="0.5" stroke-miterlimit="10" stroke-linejoin="round"/>
<path d="M88.3815 433.811L88.2168 433.905V433.693L88.3815 433.811Z" fill="#F5F5F5" stroke="#17181A" stroke-width="0.5" stroke-miterlimit="10" stroke-linejoin="round"/>
<path d="M149.694 321.703V324.338L149.6 363.159L149.577 369.629L149.529 392.051L149.482 392.027L149.529 369.605V369.582L149.553 363.135L149.647 324.315V321.727L149.694 321.703Z" fill="#F5F5F5" stroke="#17181A" stroke-width="0.5" stroke-miterlimit="10" stroke-linejoin="round"/>
<path d="M82.734 430.565L82.5693 430.659V430.447L82.734 430.565Z" fill="#F5F5F5" stroke="#17181A" stroke-width="0.5" stroke-miterlimit="10" stroke-linejoin="round"/>
<path d="M82.734 430.565L82.5693 430.659V430.447L82.734 430.565Z" fill="#F5F5F5" stroke="#17181A" stroke-width="0.5" stroke-miterlimit="10" stroke-linejoin="round"/>
<path d="M149.694 321.703V324.338L149.6 363.159L149.577 369.629L149.529 392.051L149.482 392.027L149.529 369.605V369.582L149.553 363.135L149.647 324.315V321.727L149.694 321.703Z" fill="#F5F5F5" stroke="#17181A" stroke-width="0.5" stroke-miterlimit="10" stroke-linejoin="round"/>
<path d="M193.525 417.318L193.407 417.389L187.784 414.142L187.878 414.071L193.525 417.318Z" fill="#F5F5F5" stroke="#17181A" stroke-width="0.5" stroke-miterlimit="10" stroke-linejoin="round"/>
<path d="M212.254 351.207V353.842L212.231 360.312L212.184 387.957V393.698L212.16 400.074L206.537 403.321L206.561 396.945V390.427L206.631 357.089V354.454L209.972 352.525L211.596 351.583L212.254 351.207Z" fill="#17181A" stroke="#17181A" stroke-width="0.5" stroke-miterlimit="10" stroke-linejoin="round"/>
<path d="M88.3815 433.811L88.2168 433.905V433.693L88.3815 433.811Z" fill="#F5F5F5" stroke="#17181A" stroke-width="0.5" stroke-miterlimit="10" stroke-linejoin="round"/>
<path d="M193.525 417.318L193.407 417.389L187.784 414.142L187.878 414.071L193.525 417.318Z" fill="#F5F5F5" stroke="#17181A" stroke-width="0.5" stroke-miterlimit="10" stroke-linejoin="round"/>
<path d="M187.692 490.844L187.621 490.891V490.797L187.692 490.844Z" fill="#F5F5F5" stroke="#17181A" stroke-width="0.5" stroke-miterlimit="10" stroke-linejoin="round"/>
<path d="M193.527 417.321L193.409 417.392L187.786 414.145L187.88 414.074L193.527 417.321Z" fill="#F5F5F5" stroke="#17181A" stroke-width="0.5" stroke-miterlimit="10" stroke-linejoin="round"/>
<path d="M249.028 378.807L229.806 389.912V389.888L249.028 378.807Z" fill="#F5F5F5" stroke="#17181A" stroke-width="0.5" stroke-miterlimit="10" stroke-linejoin="round"/>
<path d="M249.028 378.807L229.806 389.912V389.888L249.028 378.807Z" fill="#F5F5F5" stroke="#17181A" stroke-width="0.5" stroke-miterlimit="10" stroke-linejoin="round"/>
<path d="M249.028 378.807L229.806 389.912V389.888L249.028 378.807Z" fill="#F5F5F5" stroke="#17181A" stroke-width="0.5" stroke-miterlimit="10" stroke-linejoin="round"/>
<path d="M187.692 490.844L187.621 490.891V490.797L187.692 490.844Z" fill="#F5F5F5" stroke="#17181A" stroke-width="0.5" stroke-miterlimit="10" stroke-linejoin="round"/>
<path d="M193.337 494.09L193.243 494.137V494.043L193.337 494.09Z" fill="#F5F5F5" stroke="#17181A" stroke-width="0.5" stroke-miterlimit="10" stroke-linejoin="round"/>
<path d="M288.6 362.454L288.506 439.248L193.337 494.091L193.243 494.044L193.267 487.644L193.384 423.72V423.696L193.408 417.391L193.526 417.32L206.536 409.815L212.159 406.568L224.182 399.628L229.781 396.404L249.027 385.299L254.627 382.076L282.977 365.701L288.6 362.454Z" fill="#F5F5F5" stroke="#17181A" stroke-width="0.5" stroke-miterlimit="10" stroke-linejoin="round"/>
<path d="M193.337 494.09L193.243 494.137V494.043L193.337 494.09Z" fill="#F5F5F5" stroke="#17181A" stroke-width="0.5" stroke-miterlimit="10" stroke-linejoin="round"/>
<path d="M193.527 417.321L193.409 417.392L187.786 414.145L187.88 414.074L193.527 417.321Z" fill="#F5F5F5" stroke="#17181A" stroke-width="0.5" stroke-miterlimit="10" stroke-linejoin="round"/>
<path d="M149.693 321.704V324.339L149.646 324.316V321.728L149.693 321.704Z" fill="#F5F5F5" stroke="#17181A" stroke-width="0.5" stroke-miterlimit="10" stroke-linejoin="round"/>
<path d="M202.018 322.832L201.971 345.301L201.924 345.277L201.971 322.809L202.018 322.832Z" fill="#F5F5F5" stroke="#17181A" stroke-width="0.5" stroke-miterlimit="10" stroke-linejoin="round"/>
<path d="M202.018 322.832L201.971 345.301L201.924 345.277L201.971 322.809L202.018 322.832Z" fill="#F5F5F5" stroke="#17181A" stroke-width="0.5" stroke-miterlimit="10" stroke-linejoin="round"/>
<path d="M247.638 297.282L247.521 371.488L236.275 365.018L231.122 362.054L231.216 306.787L236.369 303.799L247.638 297.282Z" fill="#F5F5F5" stroke="#17181A" stroke-width="0.5" stroke-miterlimit="10" stroke-linejoin="round"/>
<path d="M149.693 321.704V324.339L149.646 324.316V321.728L149.693 321.704Z" fill="#F5F5F5" stroke="#17181A" stroke-width="0.5" stroke-miterlimit="10" stroke-linejoin="round"/>
<path d="M288.599 362.454L282.976 365.701L254.626 382.076L249.026 385.299L229.781 396.404L224.181 399.627L212.158 406.568L206.535 409.815L193.525 417.32L187.878 414.073L206.535 403.321L212.158 400.074L224.204 393.134L229.804 389.91L249.026 378.805L244.203 376.029L236.251 371.465L231.098 368.5L229.828 367.771L225.451 365.254L224.252 364.571L225.451 363.865L227.569 362.642L229.851 361.324L231.122 362.054L236.274 365.018L247.52 371.488L254.626 375.582L282.976 359.23L288.599 362.454Z" fill="#17181A" stroke="#17181A" stroke-width="0.5" stroke-miterlimit="10" stroke-linejoin="round"/>
<path d="M249.028 378.804L229.806 389.886V389.909L224.206 393.133L224.253 367.229V364.57L225.453 365.253L229.829 367.77L231.1 368.499L236.252 371.464L244.204 376.028L249.028 378.804Z" fill="#F5F5F5" stroke="#17181A" stroke-width="0.5" stroke-miterlimit="10" stroke-linejoin="round"/>
<path d="M236.392 297.283L225.569 303.541L225.452 361.442V363.866L224.252 364.571V367.23L217.217 363.183L217.24 356.713L217.311 314.011L211.664 310.764L201.995 316.363L166.162 295.753L159.504 291.918L132.235 276.225L126.612 272.979L126.73 234.158L132.33 237.381L193.195 272.414L199.854 276.249L236.392 297.283Z" fill="#F5F5F5" stroke="#17181A" stroke-width="0.5" stroke-miterlimit="10" stroke-linejoin="round"/>
<path d="M231.215 306.788L231.121 362.054L229.851 361.325L227.569 362.642L225.451 363.866V361.442L225.569 303.541L231.215 306.788Z" fill="#17181A" stroke="#17181A" stroke-width="0.5" stroke-miterlimit="10" stroke-linejoin="round"/>
<path d="M247.638 297.282L236.368 303.799L231.215 306.787L225.569 303.541L236.391 297.282L199.853 276.249L193.195 272.414L132.329 237.381L126.729 234.158L132.353 230.911L198.794 269.167L205.476 273.002L247.638 297.282Z" fill="#17181A" stroke="#17181A" stroke-width="0.5" stroke-miterlimit="10" stroke-linejoin="round"/>
<path d="M149.693 321.704V324.339L149.599 363.16L149.552 363.136L149.646 324.316V321.728L149.693 321.704Z" fill="#F5F5F5" stroke="#17181A" stroke-width="0.5" stroke-miterlimit="10" stroke-linejoin="round"/>
<path d="M202.018 322.832L201.971 345.301L201.924 345.277L201.971 322.809L202.018 322.832Z" fill="#F5F5F5" stroke="#17181A" stroke-width="0.5" stroke-miterlimit="10" stroke-linejoin="round"/>
<path d="M149.645 321.727V324.315L149.551 363.135L149.528 369.582V369.605L149.481 392.027L149.528 392.05L149.504 398.52L88.4031 433.812H88.3795L88.2148 433.694L88.2384 427.389L88.4501 357.112L108.072 345.772L113.695 342.525L147.387 323.021H147.41L149.645 321.727Z" fill="#F5F5F5" stroke="#17181A" stroke-width="0.5" stroke-miterlimit="10" stroke-linejoin="round"/>
<path d="M206.628 354.453V357.089L206.557 390.427V396.944L206.534 403.32L187.876 414.072L187.782 414.143L187.759 420.472L149.503 398.521L149.526 392.051L149.574 369.629L149.597 363.159L149.691 324.338V321.703L177.407 337.655L183.053 340.902L184.277 341.584L189.923 344.831L201.922 351.748L201.946 351.771L206.628 354.453Z" fill="#F5F5F5" stroke="#17181A" stroke-width="0.5" stroke-miterlimit="10" stroke-linejoin="round"/>
<path d="M149.693 321.703V324.338L149.599 363.159L149.575 369.629L149.528 369.605V369.582L149.552 363.135L149.646 324.315V321.727L149.693 321.703Z" fill="#F5F5F5" stroke="#17181A" stroke-width="0.5" stroke-miterlimit="10" stroke-linejoin="round"/>
<path d="M189.948 330.455L189.925 338.36L184.278 335.114L183.078 334.431L184.278 333.725L189.948 330.455Z" fill="#F5F5F5" stroke="#17181A" stroke-width="0.5" stroke-miterlimit="10" stroke-linejoin="round"/>
<path d="M201.972 322.809L201.925 345.278L189.926 338.361L189.949 330.455L184.302 327.208L177.432 331.185L149.67 315.209L147.388 316.527H147.364L141.765 319.774H141.741L130.707 326.173L108.05 339.278L102.427 342.525L93.839 337.584H93.8154L87.1807 333.773V333.749L87.4159 256.932L93.0155 260.155L126.613 279.471L132.212 282.694L153.881 295.164L160.563 298.999L201.972 322.809Z" fill="#F5F5F5" stroke="#17181A" stroke-width="0.5" stroke-miterlimit="10" stroke-linejoin="round"/>
<path d="M202.018 322.832L201.971 345.301L201.924 345.277L201.971 322.809L202.018 322.832Z" fill="#F5F5F5" stroke="#17181A" stroke-width="0.5" stroke-miterlimit="10" stroke-linejoin="round"/>
<path d="M212.252 351.207L211.594 351.584L209.97 352.525L206.629 354.454L201.947 351.772L201.924 351.748L189.925 344.831L184.278 341.584L183.055 340.902L177.408 337.655L149.693 321.704L149.646 321.727L147.41 323.021H147.387L113.695 342.525L108.072 345.772L88.4503 357.113L82.8037 353.866L102.426 342.525L108.049 339.279L130.706 326.174L141.74 319.774H141.764L147.363 316.527H147.387L149.669 315.21L177.432 331.185L184.302 327.209L189.948 330.456L184.278 333.726L183.078 334.432L184.278 335.114L189.925 338.361L201.924 345.278L201.971 345.302L211.594 350.831L212.252 351.207Z" fill="#17181A" stroke="#17181A" stroke-width="0.5" stroke-miterlimit="10" stroke-linejoin="round"/>
<path d="M217.312 314.011L217.241 356.713L217.218 363.183L217.17 390.828L212.183 393.699V387.958L212.23 360.313L212.253 353.843V351.208L211.594 350.831L201.972 345.302L202.019 322.834L211.641 317.281L217.312 314.011Z" fill="#F5F5F5" stroke="#17181A" stroke-width="0.5" stroke-miterlimit="10" stroke-linejoin="round"/>
<path d="M149.599 363.16L149.575 369.63L149.528 369.607V369.583L149.552 363.137L149.599 363.16Z" fill="#F5F5F5" stroke="#17181A" stroke-width="0.5" stroke-miterlimit="10" stroke-linejoin="round"/>
<path d="M217.311 314.01L211.641 317.281L202.018 322.833L201.971 322.81L160.562 299L153.88 295.165L132.212 282.695L126.612 279.472L93.0146 260.156L87.415 256.932L93.0381 253.662L126.612 272.978L132.235 276.225L159.504 291.918L166.162 295.753L201.994 316.363L211.664 310.763L217.311 314.01Z" fill="#17181A" stroke="#17181A" stroke-width="0.5" stroke-miterlimit="10" stroke-linejoin="round"/>
<path d="M302.199 354.291L302.128 424.591V431.085L296.505 427.838L296.575 351.044L302.199 354.291Z" fill="#17181A" stroke="#17181A" stroke-width="0.5" stroke-miterlimit="10" stroke-linejoin="round"/>
<path d="M416.33 415.273V415.368L416.236 415.321L416.33 415.273Z" fill="#F5F5F5" stroke="#17181A" stroke-width="0.5" stroke-miterlimit="10" stroke-linejoin="round"/>
<path d="M410.708 418.521V418.615L410.614 418.568L410.708 418.521Z" fill="#F5F5F5" stroke="#17181A" stroke-width="0.5" stroke-miterlimit="10" stroke-linejoin="round"/>
<path d="M416.33 415.273V415.368L416.236 415.321L416.33 415.273Z" fill="#F5F5F5" stroke="#17181A" stroke-width="0.5" stroke-miterlimit="10" stroke-linejoin="round"/>
<path d="M367.251 316.764L367.228 337.162V343.632L367.204 387.088V393.581L302.127 431.084V424.59L302.198 354.29L343.935 330.221L349.559 326.975L367.251 316.764Z" fill="#F5F5F5" stroke="#17181A" stroke-width="0.5" stroke-miterlimit="10" stroke-linejoin="round"/>
<path d="M410.708 418.521V418.615L410.614 418.568L410.708 418.521Z" fill="#F5F5F5" stroke="#17181A" stroke-width="0.5" stroke-miterlimit="10" stroke-linejoin="round"/>
<path d="M698.146 103.039V106.968L694.758 104.992L698.146 103.039Z" fill="#F5F5F5" stroke="#17181A" stroke-width="0.5" stroke-miterlimit="10" stroke-linejoin="round"/>
<path d="M698.146 103.039V106.968L694.758 104.992L698.146 103.039Z" fill="#F5F5F5" stroke="#17181A" stroke-width="0.5" stroke-miterlimit="10" stroke-linejoin="round"/>
<path d="M758.165 218.302V218.608L757.906 218.466L758.165 218.302Z" fill="#F5F5F5" stroke="#17181A" stroke-width="0.5" stroke-miterlimit="10" stroke-linejoin="round"/>
<path d="M752.495 221.571L752.236 221.712L683.653 181.974L683.488 114.968L683.465 107.274V104.992L692.547 110.262L694.782 111.556L698.17 113.533L752.259 144.942V147.201L752.283 154.894L752.471 215.313L752.495 221.571Z" fill="#F5F5F5" stroke="#17181A" stroke-width="0.5" stroke-miterlimit="10" stroke-linejoin="round"/>
<path d="M752.495 221.57V221.876L752.236 221.711L752.495 221.57Z" fill="#F5F5F5" stroke="#17181A" stroke-width="0.5" stroke-miterlimit="10" stroke-linejoin="round"/>
<path d="M758.165 218.302V218.608L757.906 218.466L758.165 218.302Z" fill="#F5F5F5" stroke="#17181A" stroke-width="0.5" stroke-miterlimit="10" stroke-linejoin="round"/>
<path d="M752.495 221.57V221.876L752.236 221.711L752.495 221.57Z" fill="#F5F5F5" stroke="#17181A" stroke-width="0.5" stroke-miterlimit="10" stroke-linejoin="round"/>
<path d="M757.93 141.672L752.259 144.942L698.17 113.533L694.782 111.557L692.547 110.263L683.465 104.993L692.523 99.7695L698.146 103.04L694.758 104.993L698.146 106.969L757.93 141.672Z" fill="#17181A" stroke="#17181A" stroke-width="0.5" stroke-miterlimit="10" stroke-linejoin="round"/>
<path d="M459.693 390.287V390.405L459.599 390.334L459.693 390.287Z" fill="#F5F5F5" stroke="#17181A" stroke-width="0.5" stroke-miterlimit="10" stroke-linejoin="round"/>
<path d="M410.707 341.796V418.519L410.613 418.566L367.205 393.58V387.087L367.228 343.631V337.161L367.252 316.763L410.707 341.796Z" fill="#F5F5F5" stroke="#17181A" stroke-width="0.5" stroke-miterlimit="10" stroke-linejoin="round"/>
<path d="M416.331 338.573L410.708 341.796L367.253 316.763L349.56 326.974L343.937 330.221L302.199 354.29L296.576 351.043L338.291 326.974L343.914 323.727L367.253 310.27L416.331 338.573Z" fill="#17181A" stroke="#17181A" stroke-width="0.5" stroke-miterlimit="10" stroke-linejoin="round"/>
<path d="M454.045 393.533V393.651L453.951 393.604L454.045 393.533Z" fill="#F5F5F5" stroke="#17181A" stroke-width="0.5" stroke-miterlimit="10" stroke-linejoin="round"/>
<path d="M459.693 390.287V390.405L459.599 390.334L459.693 390.287Z" fill="#F5F5F5" stroke="#17181A" stroke-width="0.5" stroke-miterlimit="10" stroke-linejoin="round"/>
<path d="M454.046 387.158V393.534L453.952 393.604L416.331 371.936V338.573L367.253 310.27L343.913 323.728L338.29 326.974L332.338 323.539L332.408 246.675L338.032 249.922L454.022 316.834L454.046 387.158Z" fill="#F5F5F5" stroke="#17181A" stroke-width="0.5" stroke-miterlimit="10" stroke-linejoin="round"/>
<path d="M454.045 393.533V393.651L453.951 393.604L454.045 393.533Z" fill="#F5F5F5" stroke="#17181A" stroke-width="0.5" stroke-miterlimit="10" stroke-linejoin="round"/>
<path d="M459.67 313.587L454.024 316.834L338.033 249.921L332.41 246.675L338.033 243.428L459.67 313.587Z" fill="#17181A" stroke="#17181A" stroke-width="0.5" stroke-miterlimit="10" stroke-linejoin="round"/>
<path d="M521.264 12.1512V12.1747L515.617 8.88086L521.264 12.1512Z" fill="#F5F5F5" stroke="#17181A" stroke-width="0.5" stroke-miterlimit="10" stroke-linejoin="round"/>
<path d="M569.66 117.203V110.639L569.59 76.1238V68.4302L569.542 40.1972L575.213 36.9033L575.26 70.8301L575.283 78.5236L575.33 113.933L569.66 117.203Z" fill="#17181A" stroke="#17181A" stroke-width="0.5" stroke-miterlimit="10" stroke-linejoin="round"/>
<path d="M569.66 110.638V117.202L522.252 89.7215L515.664 85.9101V85.8159L515.617 8.88086L521.264 12.1747L569.542 40.196L569.589 68.4291V76.1226L569.66 110.638Z" fill="#F5F5F5" stroke="#17181A" stroke-width="0.5" stroke-miterlimit="10" stroke-linejoin="round"/>
<path d="M575.213 36.903L569.542 40.1968L521.264 12.1755V12.152L515.617 8.88166L521.264 5.61133L575.213 36.903Z" fill="#17181A" stroke="#17181A" stroke-width="0.5" stroke-miterlimit="10" stroke-linejoin="round"/>
<path d="M638.691 4.29492L633.068 7.56525V7.54172L638.691 4.29492Z" fill="#F5F5F5" stroke="#17181A" stroke-width="0.5" stroke-miterlimit="10" stroke-linejoin="round"/>
<path d="M592.882 101.345V107.862L587.236 104.592L587.189 71.6296L587.165 63.9361L587.118 27.5625L592.765 30.8564L592.812 60.6658V68.3828L592.882 101.345Z" fill="#17181A" stroke="#17181A" stroke-width="0.5" stroke-miterlimit="10" stroke-linejoin="round"/>
<path d="M638.833 81.3241L638.786 81.3477L632.151 85.1826L592.884 107.863V101.346L592.813 68.384V60.6669L592.766 30.8575L633.069 7.56525L638.692 4.29492L638.833 81.3241Z" fill="#F5F5F5" stroke="#17181A" stroke-width="0.5" stroke-miterlimit="10" stroke-linejoin="round"/>
<path d="M638.691 4.29386L633.068 7.54066V7.56419L592.765 30.8565L587.118 27.5626L633.044 1L638.691 4.29386Z" fill="#17181A" stroke="#17181A" stroke-width="0.5" stroke-miterlimit="10" stroke-linejoin="round"/>
<ellipse cx="509.047" cy="122.895" rx="17.5472" ry="10.214" fill="black" fill-opacity="0.05"/>
<ellipse cx="151.604" cy="428.552" rx="17.5472" ry="10.214" fill="black" fill-opacity="0.05"/>
<path d="M222.931 364.746L229.871 360.728L234.337 363.379" stroke="#F5F5F5" stroke-width="0.5"/>
<path d="M150.361 394.599C150.691 394.049 151.021 393.499 151.331 392.949C151.361 392.889 151.311 392.769 151.271 392.689C150.531 391.499 150.581 390.789 151.471 389.729C151.531 389.649 151.561 389.529 151.571 389.429C151.631 388.799 151.881 388.289 152.511 388.089C153.111 387.889 153.651 388.019 154.051 388.569C154.131 388.679 154.341 388.689 154.481 388.769C154.961 389.039 155.501 389.249 155.901 389.609C156.331 389.999 156.271 390.519 156.161 391.119C156.011 391.929 155.701 392.599 155.221 393.239C155.021 393.509 154.991 393.919 154.771 394.169C154.561 394.419 154.231 394.619 153.921 394.709C153.381 394.849 153.111 395.429 153.501 395.859C154.061 396.469 154.641 397.069 155.271 397.599C155.811 398.059 155.971 398.519 155.851 399.249C155.581 400.889 155.441 402.539 155.281 404.199C155.261 404.379 155.461 404.569 155.511 404.779C155.591 405.119 155.691 405.479 155.691 405.829C155.691 406.399 156.311 407.199 156.871 407.229C157.341 407.249 157.551 407.509 157.601 407.949C157.611 408.059 157.611 408.179 157.601 408.299C157.561 409.169 157.151 409.409 156.361 408.999C156.271 408.959 156.181 408.919 156.011 408.839C156.011 409.859 156.131 410.839 155.981 411.779C155.791 412.919 155.451 414.049 155.021 415.109C154.631 416.069 154.281 417.019 154.171 418.059C154.011 419.679 153.821 421.289 153.641 422.969C153.971 422.949 154.341 422.919 154.711 422.909C155.011 422.909 155.311 422.889 155.601 422.929C155.951 422.969 156.231 423.159 156.311 423.529C156.401 423.929 156.261 424.259 155.921 424.479C155.741 424.589 155.531 424.649 155.331 424.709C154.521 424.929 153.711 425.149 152.901 425.369C152.901 425.429 152.911 425.489 152.921 425.549C153.171 425.549 153.411 425.549 153.661 425.549C154.261 425.539 154.851 425.489 155.451 425.509C155.851 425.519 155.971 425.759 155.801 426.119C155.591 426.579 155.241 426.919 154.751 427.049C153.621 427.329 152.621 427.819 151.711 428.549C151.351 428.839 150.861 428.979 150.411 429.139C150.061 429.259 149.751 429.139 149.561 428.799C149.411 428.529 149.171 428.259 149.141 427.969C149.051 427.119 148.541 426.469 148.261 425.709C147.891 424.699 147.661 423.589 147.581 422.509C147.441 420.559 147.471 418.589 147.401 416.639C147.321 414.179 147.241 411.719 147.091 409.269C147.001 407.799 147.071 406.379 147.741 405.039C147.901 404.719 147.861 404.479 147.631 404.239C146.871 403.449 146.131 402.649 145.361 401.869C145.061 401.569 144.991 401.249 145.001 400.839C145.001 399.899 145.321 399.089 145.801 398.289C146.221 397.569 146.441 396.729 146.781 395.949C146.961 395.539 147.151 395.129 147.411 394.769C148.021 393.929 148.801 393.769 149.731 394.249C149.921 394.349 150.101 394.469 150.381 394.639L150.361 394.599ZM147.791 399.459C147.791 399.459 147.721 399.419 147.681 399.399C147.601 399.609 147.491 399.819 147.451 400.049C147.391 400.429 147.411 400.849 146.881 400.899C147.371 401.799 147.861 402.639 148.801 403.189C148.601 402.529 148.411 401.939 148.251 401.339C148.081 400.719 147.951 400.089 147.801 399.469L147.791 399.459ZM150.731 421.279C151.141 420.499 151.561 417.539 151.271 416.889C150.741 418.289 150.461 419.689 150.731 421.279Z" fill="black"/>
<path d="M507.365 122.089C506.755 122.209 506.615 122.629 506.445 123.029C506.195 123.629 505.905 124.209 505.185 124.319C504.665 124.399 504.125 124.429 503.615 124.369C503.385 124.339 503.075 124.059 503.015 123.829C502.955 123.599 503.085 123.229 503.255 123.059C503.475 122.849 503.825 122.739 504.145 122.669C504.405 122.609 504.525 122.509 504.615 122.249C504.905 121.439 505.265 120.659 505.535 119.839C505.715 119.299 505.815 118.719 505.885 118.149C506.105 116.339 506.425 114.529 506.465 112.709C506.495 111.209 506.175 109.709 506.015 108.209C505.905 107.199 505.785 106.199 505.655 105.189C505.575 104.599 505.425 104.019 505.365 103.429C505.335 103.149 505.365 102.779 505.525 102.569C506.135 101.709 505.915 100.709 506.025 99.7788C506.065 99.4288 505.605 99.0088 505.355 98.6388C505.095 98.2688 504.755 97.9488 504.535 97.5588C504.305 97.1688 504.475 96.6088 504.885 96.2588C505.275 95.9288 505.725 95.6588 506.105 95.3288C506.245 95.1988 506.385 94.9288 506.355 94.7588C506.145 93.6688 506.415 92.7188 506.935 91.7588C507.335 91.0088 507.535 90.1488 507.745 89.5488C507.445 88.8688 507.215 88.3288 506.985 87.7988C506.985 87.7888 506.975 87.7688 506.985 87.7488C507.295 86.7188 506.965 85.5388 507.875 84.6488C508.475 84.0688 509.095 83.8388 509.845 84.1188C510.415 84.3388 510.945 84.6788 511.495 84.9688C511.485 85.0088 511.465 85.0488 511.455 85.0888C511.605 85.0288 511.755 84.9688 511.915 84.9188C512.775 84.6488 513.405 84.8888 513.835 85.6888C514.155 86.2588 514.295 86.8788 514.105 87.5088C513.725 88.7588 513.645 90.0188 513.915 91.2988C513.955 91.4688 513.915 91.6488 513.815 91.8988C513.685 91.7488 513.535 91.6188 513.435 91.4588C512.895 90.5888 512.755 89.6188 512.845 88.6288C512.915 87.7988 512.495 87.3788 511.845 86.9988C511.625 87.7588 511.865 88.7688 510.675 89.0288C510.775 89.2688 510.805 89.5488 510.955 89.6788C512.235 90.7288 512.615 92.2388 513.025 93.7188C513.345 94.8788 513.055 96.0388 512.765 97.1588C512.395 98.6288 512.365 100.029 512.745 101.519C513.015 102.569 512.905 103.729 512.935 104.839C512.935 105.089 512.855 105.369 512.735 105.599C511.995 107.129 512.145 108.649 512.705 110.179C513.295 111.769 513.655 113.389 513.525 115.099C513.475 115.789 513.445 116.479 513.425 117.169C513.425 117.299 513.485 117.459 513.565 117.579C513.965 118.129 513.885 118.699 513.645 119.279C513.525 119.569 513.455 119.869 513.345 120.159C513.305 120.279 513.205 120.369 513.125 120.469C513.035 120.369 512.875 120.289 512.855 120.179C512.785 119.879 512.775 119.559 512.725 119.109C512.495 119.319 512.325 119.429 512.215 119.589C511.975 119.969 511.755 120.359 511.545 120.759C511.225 121.389 510.645 121.429 510.055 121.429C509.455 121.429 508.925 121.269 508.645 120.699C508.565 120.539 508.605 120.209 508.725 120.089C508.955 119.839 509.255 119.609 509.575 119.509C510.015 119.379 510.225 119.099 510.385 118.719C511.295 116.479 511.325 114.269 510.135 112.119C510.005 111.879 509.865 111.639 509.685 111.329C509.625 112.309 509.645 113.209 509.495 114.079C509.235 115.529 508.875 116.969 508.535 118.399C508.415 118.919 508.225 119.429 508.075 119.949C508.055 120.019 508.095 120.109 508.135 120.179C508.395 120.589 508.395 121.009 508.285 121.469C508.205 121.789 508.255 122.129 508.215 122.459C508.185 122.749 508.135 123.049 508.035 123.329C507.995 123.439 507.785 123.489 507.655 123.559C507.595 123.439 507.495 123.329 507.485 123.209C507.445 122.849 507.435 122.489 507.405 122.089H507.365Z" fill="black"/>
</svg>
